<svg width="19" height="20" viewBox="0 0 19 20" fill="none" xmlns="http://www.w3.org/2000/svg">
<path d="M8.71498 1.02755C8.9637 0.441819 9.08811 0.148953 9.26129 0.0587672C9.4117 -0.0195891 9.58832 -0.0195891 9.73873 0.0587672C9.91192 0.148953 10.0363 0.441819 10.285 1.02755L12.2661 5.69298C12.3397 5.86614 12.3765 5.95271 12.4334 6.01902C12.4837 6.07768 12.5453 6.12461 12.6139 6.15672C12.6916 6.19304 12.7814 6.20299 12.961 6.22288L17.8002 6.75902C18.4078 6.82633 18.7115 6.85998 18.8467 7.005C18.9642 7.13096 19.0187 7.30734 18.9942 7.48173C18.9661 7.68247 18.7392 7.89708 18.2854 8.32642L14.6705 11.746C14.5365 11.8729 14.4693 11.9364 14.4269 12.0136C14.3893 12.0821 14.3657 12.158 14.3579 12.2364C14.349 12.3252 14.3677 12.4179 14.4052 12.6034L15.4148 17.6001C15.5416 18.2275 15.605 18.5411 15.5154 18.7209C15.4375 18.8772 15.2946 18.9862 15.1291 19.0156C14.9385 19.0494 14.6739 18.8893 14.1446 18.5689L9.92943 16.0168C9.773 15.9221 9.69479 15.8748 9.61164 15.8562C9.53804 15.8398 9.46198 15.8398 9.38838 15.8562C9.30523 15.8748 9.22702 15.9221 9.07059 16.0168L4.85541 18.5689C4.3262 18.8893 4.0616 19.0494 3.871 19.0156C3.70543 18.9862 3.5625 18.8772 3.48468 18.7209C3.39509 18.5411 3.45846 18.2275 3.58522 17.6001L4.59485 12.6034C4.63233 12.4179 4.65106 12.3252 4.64217 12.2364C4.63429 12.158 4.6108 12.0821 4.5732 12.0136C4.53071 11.9364 4.46362 11.8729 4.32947 11.746L0.714693 8.32642C0.260878 7.89708 0.0339644 7.68247 0.00575201 7.48173C-0.0187431 7.30734 0.0358446 7.13096 0.153314 7.005C0.288553 6.85998 0.592325 6.82633 1.19987 6.75902L6.03905 6.22288C6.21866 6.20299 6.30845 6.19304 6.38611 6.15672C6.45481 6.12461 6.51633 6.07768 6.56667 6.01902C6.62356 5.95271 6.66032 5.86614 6.73386 5.69298L8.71498 1.02755Z" fill="#FF8D23"/>
</svg>
