<svg width="19" height="20" viewBox="0 0 19 20" fill="none" xmlns="http://www.w3.org/2000/svg">
<path d="M9.17521 1.22297L9.17521 1.22298L7.19409 5.88841L7.19408 5.88844C7.18907 5.90022 7.18401 5.91223 7.17888 5.92443C7.12205 6.05934 7.05567 6.21695 6.94614 6.3446L6.94611 6.34463C6.85051 6.45604 6.7322 6.54686 6.59791 6.60965L9.17521 1.22297ZM9.17521 1.22297C9.30335 0.921191 9.38682 0.725824 9.45795 0.592034C9.47503 0.559897 9.48909 0.536055 9.50001 0.518733C9.51093 0.536055 9.52499 0.559897 9.54207 0.592034C9.6132 0.725824 9.69667 0.921191 9.82481 1.22297L9.82481 1.22298M9.17521 1.22297L9.82481 1.22298M9.82481 1.22298L11.8059 5.88841L11.806 5.88856L9.82481 1.22298ZM12.4022 6.60967L12.402 6.60961C12.2681 6.54696 12.1498 6.45631 12.0541 6.34478C12.054 6.34465 12.0539 6.34452 12.0538 6.34439L12.4334 6.01902L12.4022 6.60967ZM12.4022 6.60967C12.5579 6.68249 12.7293 6.70086 12.8685 6.71578C12.8813 6.71715 12.8938 6.71849 12.906 6.71984C12.906 6.71984 12.906 6.71984 12.906 6.71984L17.7452 7.25598C18.0593 7.29078 18.259 7.31345 18.3992 7.34248C18.4461 7.3522 18.4761 7.36085 18.4938 7.36671M12.4022 6.60967L18.4938 7.36671M18.4938 7.36671C18.4968 7.37418 18.499 7.38276 18.4997 7.39211C18.4901 7.40711 18.4685 7.43774 18.4247 7.48733C18.3262 7.59887 18.1759 7.74173 17.9418 7.96321L14.3269 11.3828L14.3269 11.3828C14.3178 11.3914 14.3085 11.4001 14.2991 11.4089C14.1941 11.5078 14.0703 11.6241 13.9886 11.7729L13.9886 11.7729C13.9184 11.9007 13.8749 12.0415 13.8604 12.1865C13.8604 12.1866 13.8604 12.1866 13.8604 12.1867L14.3579 12.2364M18.4938 7.36671L14.9247 17.6992C14.99 18.0222 15.032 18.2323 15.0495 18.3852C15.0568 18.4492 15.0576 18.4879 15.0571 18.5085C15.0583 18.5089 15.0594 18.5093 15.0605 18.5098C15.063 18.5066 15.0655 18.5027 15.0679 18.4979L15.0679 18.4979C15.0656 18.5025 15.0637 18.5067 15.0622 18.5104C15.0842 18.5187 15.0938 18.5207 15.0938 18.5209C15.0937 18.5212 15.0804 18.5188 15.0584 18.521C15.057 18.5252 15.0565 18.5275 15.0563 18.5275C15.0562 18.5275 15.0564 18.5255 15.0567 18.5212C15.052 18.5217 15.047 18.5223 15.0417 18.5233L15.1291 19.0156M14.3579 12.2364C14.349 12.3252 14.3677 12.4179 14.4052 12.6034M14.3579 12.2364C14.3657 12.158 14.3893 12.0821 14.4269 12.0136L14.3579 12.2364ZM14.4052 12.6034L13.9151 12.7024L13.9151 12.7025L14.4052 12.6034ZM14.4052 12.6034L15.4148 17.6001L15.4149 17.6003C15.5416 18.2276 15.605 18.5412 15.5154 18.7209C15.4375 18.8772 15.2946 18.9862 15.1291 19.0156M15.1291 19.0156L15.0415 18.5233C15.0435 18.523 15.0499 18.5211 15.057 18.5137L9.92943 16.0168L14.1446 18.5689C14.6739 18.8893 14.9385 19.0494 15.1291 19.0156Z" stroke="#FF8D23" stroke-linecap="round" stroke-linejoin="round"/>
</svg>
