<svg width="23" height="27" viewBox="0 0 23 27" fill="none" xmlns="http://www.w3.org/2000/svg">
<g id="PayPal">
<path id="Fill 7" fill-rule="evenodd" clip-rule="evenodd" d="M6.79946 25.1279L7.23442 22.2901L6.26549 22.2669H1.63867L4.85415 1.3252C4.86416 1.26179 4.89655 1.20292 4.94384 1.16104C4.99137 1.11916 5.05194 1.09619 5.11531 1.09619H12.9168C15.507 1.09619 17.2944 1.64969 18.2274 2.74232C18.6649 3.2549 18.9436 3.79069 19.0785 4.38008C19.2199 4.99866 19.2222 5.73762 19.0843 6.63905L19.0743 6.70462V7.28228L19.5118 7.5369C19.8801 7.73767 20.173 7.96739 20.3975 8.23038C20.7717 8.66878 21.0138 9.22586 21.116 9.88609C21.2218 10.5652 21.1869 11.3736 21.0138 12.2886C20.8141 13.3411 20.4914 14.2578 20.0555 15.0078C19.6548 15.6989 19.1442 16.2722 18.5377 16.7164C17.9588 17.1385 17.2711 17.4589 16.4934 17.664C15.7397 17.8655 14.8805 17.9672 13.9382 17.9672H13.3311C12.897 17.9672 12.4753 18.1277 12.1443 18.4156C11.8123 18.7095 11.5928 19.111 11.5255 19.5501L11.4796 19.8057L10.7111 24.8078L10.6763 24.9913C10.667 25.0494 10.6512 25.0784 10.6279 25.098C10.6071 25.116 10.5773 25.1279 10.5482 25.1279H6.79946Z" fill="#28356A"/>
<path id="Fill 8" fill-rule="evenodd" clip-rule="evenodd" d="M19.9249 6.77124C19.9018 6.92415 19.875 7.08041 19.8452 7.24098C18.8164 12.6668 15.2964 14.5412 10.801 14.5412H8.51207C7.96226 14.5412 7.49887 14.9512 7.41337 15.5082L5.90954 25.3063C5.85386 25.6722 6.1283 26.0017 6.48754 26.0017H10.5473C11.0279 26.0017 11.4363 25.643 11.512 25.156L11.5519 24.9442L12.3163 19.9618L12.3654 19.6885C12.4402 19.1999 12.8495 18.8409 13.3302 18.8409H13.9373C17.8705 18.8409 20.9497 17.2008 21.8497 12.4541C22.2255 10.4713 22.031 8.81556 21.0362 7.65114C20.7352 7.30009 20.3617 7.00862 19.9249 6.77124Z" fill="#2F80ED"/>
<path id="Fill 9" fill-rule="evenodd" clip-rule="evenodd" d="M18.8495 6.3307C18.6922 6.28356 18.5301 6.24097 18.3637 6.20244C18.1964 6.16487 18.0252 6.13161 17.8489 6.10241C17.2317 5.99999 16.5554 5.95142 15.8311 5.95142H9.71629C9.56555 5.95142 9.42251 5.98635 9.29461 6.04953C9.01248 6.1888 8.80304 6.46303 8.75225 6.79877L7.45134 15.2618L7.41406 15.5085C7.49956 14.9514 7.96294 14.5415 8.51276 14.5415H10.8017C15.2971 14.5415 18.8171 12.6661 19.8459 7.24123C19.8766 7.08066 19.9025 6.9244 19.9256 6.77149C19.6653 6.62959 19.3834 6.50826 19.0799 6.40489C19.0049 6.37928 18.9275 6.35463 18.8495 6.3307Z" fill="#28356A"/>
<g id="Group 17692">
<path id="Fill 11" fill-rule="evenodd" clip-rule="evenodd" d="M8.75207 6.79878C8.80286 6.46304 9.0123 6.18881 9.29443 6.05049C9.42326 5.98708 9.56537 5.95214 9.71611 5.95214H15.8309C16.5552 5.95214 17.2315 6.00096 17.8487 6.10338C18.025 6.13233 18.1963 6.16583 18.3635 6.2034C18.5299 6.24169 18.692 6.28452 18.8493 6.33143C18.9273 6.35536 19.0047 6.38024 19.0804 6.40489C19.384 6.50827 19.6661 6.63055 19.9263 6.7715C20.2324 4.76642 19.9238 3.40123 18.8684 2.16501C17.7047 0.803887 15.6047 0.221436 12.9174 0.221436H5.11562C4.56674 0.221436 4.09846 0.631353 4.01366 1.1894L0.764176 22.3464C0.700108 22.765 1.01439 23.1426 1.42535 23.1426H6.2418L8.75207 6.79878Z" fill="#28356A"/>
</g>
</g>
</svg>
