<svg width="15" height="16" viewBox="0 0 15 16" fill="none" xmlns="http://www.w3.org/2000/svg">
<path d="M13.5938 0.9375H1.40625C1.01562 0.9375 0.683594 1.07422 0.410156 1.34766C0.136719 1.62109 0 1.95313 0 2.34375V14.5312C0 14.9219 0.136719 15.2539 0.410156 15.5273C0.683594 15.8008 1.01562 15.9375 1.40625 15.9375H13.5938C13.9844 15.9375 14.3164 15.8008 14.5898 15.5273C14.8633 15.2539 15 14.9219 15 14.5312V2.34375C15 1.95313 14.8633 1.62109 14.5898 1.34766C14.3164 1.07422 13.9844 0.9375 13.5938 0.9375ZM10.3125 3.28125C10.3125 3.1543 10.3564 3.04688 10.4443 2.95898C10.542 2.86133 10.6543 2.8125 10.7812 2.8125H12.6562C12.7832 2.8125 12.8906 2.86133 12.9785 2.95898C13.0762 3.04688 13.125 3.1543 13.125 3.28125V5.15625C13.125 5.2832 13.0762 5.39551 12.9785 5.49316C12.8906 5.58105 12.7832 5.625 12.6562 5.625H10.7812C10.6543 5.625 10.542 5.58105 10.4443 5.49316C10.3564 5.39551 10.3125 5.2832 10.3125 5.15625V3.28125ZM7.5 5.625C8.27148 5.625 8.93066 5.89844 9.47754 6.44531C10.0342 6.99219 10.3125 7.65625 10.3125 8.4375C10.3125 9.20898 10.0391 9.87305 9.49219 10.4297C8.94531 10.9766 8.28125 11.25 7.5 11.25C6.72852 11.25 6.06445 10.9766 5.50781 10.4297C4.96094 9.88281 4.6875 9.21875 4.6875 8.4375C4.6875 7.66602 4.96094 7.00684 5.50781 6.45996C6.05469 5.90332 6.71875 5.625 7.5 5.625ZM13.125 13.5938C13.125 13.7207 13.0762 13.833 12.9785 13.9307C12.8906 14.0186 12.7832 14.0625 12.6562 14.0625H2.34375C2.2168 14.0625 2.10449 14.0186 2.00684 13.9307C1.91895 13.833 1.875 13.7207 1.875 13.5938V7.5H2.90039C2.87109 7.64648 2.84668 7.79785 2.82715 7.9541C2.81738 8.11035 2.8125 8.27148 2.8125 8.4375C2.8125 9.08203 2.93457 9.69238 3.17871 10.2686C3.42285 10.835 3.75488 11.333 4.1748 11.7627C4.60449 12.1826 5.10254 12.5146 5.66895 12.7588C6.24512 13.0029 6.85547 13.125 7.5 13.125C8.14453 13.125 8.75 13.0029 9.31641 12.7588C9.89258 12.5146 10.3906 12.1826 10.8105 11.7627C11.2402 11.333 11.5771 10.835 11.8213 10.2686C12.0654 9.69238 12.1875 9.08203 12.1875 8.4375C12.1875 8.28125 12.1777 8.125 12.1582 7.96875C12.1484 7.80273 12.1289 7.64648 12.0996 7.5H13.125V13.5938Z" fill="white"/>
</svg>
