<svg width="16" height="17" viewBox="0 0 16 17" fill="none" xmlns="http://www.w3.org/2000/svg">
<path d="M2.28516 2.69531C3.83203 1.14844 5.69531 0.375 7.875 0.375C10.0547 0.375 11.9062 1.14844 13.4297 2.69531C14.9766 4.21875 15.75 6.07031 15.75 8.25C15.75 10.4297 14.9766 12.293 13.4297 13.8398C11.9062 15.3633 10.0547 16.125 7.875 16.125C7.07812 16.125 6.32812 16.0195 5.625 15.8086C6.04688 15.0586 6.31641 14.4961 6.43359 14.1211L6.99609 11.9414C7.34766 12.5977 7.98047 12.9258 8.89453 12.9258C10.1602 12.9258 11.1797 12.4219 11.9531 11.4141C12.75 10.4062 13.1484 9.11719 13.1484 7.54688C13.1484 6.32812 12.6797 5.27344 11.7422 4.38281C10.8047 3.46875 9.60938 3.01172 8.15625 3.01172C6.42188 3.01172 5.05078 3.52734 4.04297 4.55859C3.03516 5.56641 2.53125 6.69141 2.53125 7.93359C2.53125 9.50391 3.07031 10.5117 4.14844 10.957C4.35938 11.0508 4.5 10.9805 4.57031 10.7461C4.57031 10.6992 4.58203 10.5938 4.60547 10.4297C4.65234 10.2656 4.6875 10.1602 4.71094 10.1133C4.75781 9.97266 4.72266 9.83203 4.60547 9.69141C4.25391 9.26953 4.07812 8.75391 4.07812 8.14453C4.07812 7.11328 4.42969 6.23438 5.13281 5.50781C5.85938 4.75781 6.79688 4.38281 7.94531 4.38281C8.97656 4.38281 9.78516 4.66406 10.3711 5.22656C10.957 5.76562 11.25 6.48047 11.25 7.37109C11.25 8.54297 11.0156 9.53906 10.5469 10.3594C10.0781 11.1562 9.48047 11.5547 8.75391 11.5547C8.33203 11.5547 7.99219 11.4141 7.73438 11.1328C7.47656 10.8281 7.39453 10.4648 7.48828 10.043C7.53516 9.80859 7.61719 9.49219 7.73438 9.09375C7.875 8.69531 7.98047 8.34375 8.05078 8.03906C8.14453 7.73438 8.19141 7.47656 8.19141 7.26562C8.19141 6.9375 8.09766 6.65625 7.91016 6.42188C7.72266 6.1875 7.46484 6.07031 7.13672 6.07031C6.71484 6.07031 6.35156 6.26953 6.04688 6.66797C5.76562 7.04297 5.625 7.52344 5.625 8.10938C5.625 8.32031 5.64844 8.53125 5.69531 8.74219C5.74219 8.95312 5.78906 9.11719 5.83594 9.23438L5.87109 9.375C5.28516 11.8125 4.94531 13.2422 4.85156 13.6641C4.71094 14.2266 4.66406 14.8242 4.71094 15.457C3.30469 14.8242 2.16797 13.8633 1.30078 12.5742C0.433594 11.2852 0 9.84375 0 8.25C0 6.07031 0.761719 4.21875 2.28516 2.69531Z" fill="white"/>
</svg>
