<svg width="17" height="14" viewBox="0 0 17 14" fill="none" xmlns="http://www.w3.org/2000/svg">
<path d="M16.5938 2.11719C16.1719 2.77344 15.6094 3.35937 14.9062 3.875V4.29688C14.9062 6.75781 14.0156 8.99609 12.2344 11.0117C10.4766 13.0039 8.13281 14 5.20312 14C3.32812 14 1.59375 13.4844 0 12.4531C0.375 12.5 0.644531 12.5234 0.808594 12.5234C2.37891 12.5234 3.78516 12.0312 5.02734 11.0469C4.30078 11.0234 3.64453 10.8008 3.05859 10.3789C2.47266 9.93359 2.07422 9.37109 1.86328 8.69141C2.14453 8.73828 2.35547 8.76172 2.49609 8.76172C2.73047 8.76172 3.03516 8.71484 3.41016 8.62109C2.63672 8.45703 1.98047 8.07031 1.44141 7.46094C0.925781 6.82812 0.667969 6.10156 0.667969 5.28125V5.24609C1.18359 5.52734 1.69922 5.66797 2.21484 5.66797C1.20703 5.01172 0.703125 4.0625 0.703125 2.82031C0.703125 2.23437 0.855469 1.67187 1.16016 1.13281C2.96484 3.35937 5.29688 4.54297 8.15625 4.68359C8.10938 4.51953 8.08594 4.26172 8.08594 3.91016C8.08594 2.94922 8.41406 2.14063 9.07031 1.48438C9.72656 0.828125 10.5352 0.5 11.4961 0.5C12.457 0.5 13.2773 0.863281 13.957 1.58984C14.6602 1.47266 15.3867 1.19141 16.1367 0.746094C15.9023 1.56641 15.3984 2.19922 14.625 2.64453C15.3516 2.57422 16.0078 2.39844 16.5938 2.11719Z" fill="white"/>
</svg>
